<?xml version="1.0" encoding="UTF-8"?><svg id="a" xmlns="http://www.w3.org/2000/svg" viewBox="0 0 400 400"><path d="M54.28,86.28c-11.45,3.09-20.42-1.94-22.81-10.79s2.76-18,14.21-21.09,20.32,2.13,22.75,11.11-2.84,17.71-14.14,20.76Z" style="fill:#252525;"/><polyline points="48.12 0 56.75 40.69 29.22 48.12 13.35 0" style="fill:#252525;"/><polygon points="13.35 400 6.9 380.45 41.97 370.98 48.12 400 13.35 400" style="fill:#252525;"/><path d="M254.56,164.24c-9.7,6.81-19.86,5.14-25.12-2.35s-3.55-17.86,6.16-24.67,19.83-4.94,25.18,2.68,3.38,17.62-6.21,24.34Zm-80.66-83.31l29.73-20.87,37.68,60.48-23.34,16.38-44.07-55.99Z" style="fill:#252525;"/><path d="M291.21,281.19c-8.98-7.74-9.85-18-3.87-24.93s16.45-7.82,25.43-.08c8.87,7.64,9.64,18.02,3.57,25.07s-16.25,7.59-25.12-.05Zm61.01-98.61l27.51,23.71-49.4,51.35-21.6-18.62,43.49-56.44Z" style="fill:#252525;"/><path d="M110.16,265.04c-11.7,1.88-20.11-4.05-21.57-13.1-1.48-9.19,4.62-17.62,16.32-19.5,11.56-1.86,19.99,4.23,21.47,13.42s-4.66,17.32-16.22,19.18Zm-36.13-110.18l35.86-5.77,7.46,70.86-28.16,4.53-15.16-69.62Z" style="fill:#252525;"/><path d="M367.82,364.14c-10.17-6.09-12.78-16.05-8.07-23.91s14.87-10.51,25.04-4.42c10.04,6.02,12.58,16.1,7.8,24.09-4.71,7.86-14.72,10.25-24.76,4.24Z" style="fill:#252525;"/><polyline points="399.87 332.78 377.88 319.6 399.87 277.87" style="fill:#252525;"/><polyline points="0 277.87 11.23 256.56 42.38 275.23 2.48 334.26 0 332.78" style="fill:#252525;"/><path d="M155.23,48.05c-8.99-7.72-9.88-17.98-3.92-24.93s16.43-7.84,25.43-.12,9.67,18,3.61,25.06-16.24,7.62-25.12-.01Z" style="fill:#252525;"/><polyline points="217.74 0 194.31 24.44 172.68 5.86 177.17 0" style="fill:#252525;"/><polyline points="177.17 400 216.07 349.34 243.63 373 217.74 400" style="fill:#252525;"/><path d="M367.26,150.29c-11.29-3.62-16.1-12.72-13.3-21.45s12.09-13.61,23.38-9.99,15.91,12.82,13.07,21.69c-2.8,8.72-12,13.33-23.15,9.75Z" style="fill:#252525;"/><polyline points="400 97.88 394.09 113.34 366.93 104.63 384.95 35.69 400 40.52" style="fill:#252525;"/><polyline points="0 40.52 19.53 46.78 0 97.88" style="fill:#252525;"/><path d="M104.05,127.57c-9.53-.75-14.99-7.01-14.41-14.37s6.97-12.93,16.5-12.18c9.42,.74,14.87,7.12,14.28,14.6s-6.95,12.69-16.37,11.95Zm-7.35-93.24l29.21,2.3-7.64,56.97-22.93-1.81,1.37-57.46Z" style="fill:#252525;"/><path d="M150.06,311.97c-9.53-.75-14.99-7.01-14.41-14.37s6.97-12.93,16.5-12.18,14.87,7.12,14.28,14.6-6.95,12.69-16.37,11.95Zm-7.35-93.24l29.21,2.3-7.64,56.97-22.93-1.81,1.37-57.46Z" style="fill:#252525;"/><path d="M142.21,387.07c-8.97,3.32-16.55-.06-19.12-6.99s.89-14.66,9.86-17.99c8.86-3.28,16.48,.21,19.09,7.25,2.57,6.93-.98,14.44-9.83,17.72Zm-45.84-81.53l27.47-10.18,17,54.9-21.57,8-22.9-52.72Z" style="fill:#252525;"/><path d="M331.48,129.81c-9.29,2.26-16.43-1.98-18.17-9.16-1.77-7.29,2.59-14.46,11.89-16.72,9.18-2.23,16.34,2.13,18.12,9.43s-2.65,14.22-11.83,16.45Zm-36.05-86.31l28.47-6.92,10.49,56.51-22.35,5.43-16.61-55.02Z" style="fill:#252525;"/><path d="M255.55,294.67c-9.29,2.26-16.43-1.98-18.17-9.16-1.77-7.29,2.59-14.46,11.89-16.72,9.18-2.23,16.34,2.13,18.12,9.43s-2.65,14.22-11.83,16.45Zm-36.05-86.31l28.47-6.92,10.49,56.51-22.35,5.43-16.61-55.02Z" style="fill:#252525;"/><path d="M251.79,69.38c-8.89-3.52-12.28-11.1-9.56-17.97s10.46-10.31,19.35-6.8c8.78,3.47,12.12,11.17,9.36,18.15s-10.37,10.09-19.15,6.62Z" style="fill:#252525;"/><polyline points="294.24 0 275.35 41.07 253.95 32.61 264.82 0" style="fill:#252525;"/><polyline points="264.82 400 272.12 378.08 299.37 388.85 294.24 400" style="fill:#252525;"/><path d="M37.15,239.35c-7.63,5.77-15.86,4.71-20.32-1.18s-3.37-14.3,4.26-20.06c7.53-5.69,15.84-4.54,20.37,1.45,4.46,5.89,3.22,14.11-4.31,19.8Z" style="fill:#252525;"/><polyline points=".13 167.22 25.23 204.51 6.88 218.38 0 210.24" style="fill:#252525;"/><polyline points="399.87 210.24 369.63 174.49 393 156.83 400 167.22" style="fill:#252525;"/><path d="M165.42,159.97c-7.67,1.56-13.38-2.13-14.58-8.05s2.56-11.74,10.23-13.31c7.57-1.54,13.3,2.24,14.53,8.26s-2.6,11.55-10.18,13.09Zm-26.83-71.69l23.5-4.78,6.85,46.54-18.45,3.76-11.9-45.51Z" style="fill:#252525;"/><path d="M280.91,217.69c-7.51-2.19-10.84-8.12-9.14-13.92,1.72-5.9,7.75-9.19,15.26-7,7.42,2.17,10.72,8.19,9,14.09s-7.69,9-15.11,6.84Zm9.7-75.93l23.01,6.73-15.64,44.36-18.07-5.28,10.7-45.8Z" style="fill:#252525;"/><path d="M337.12,342.72c-4.38,6.49-11.04,7.85-16.05,4.47s-6.39-10.18-2.02-16.66,11.07-7.71,16.16-4.28,6.23,10.07,1.91,16.47Zm-69.36-32.37l13.42-19.87,37.48,28.42-10.54,15.6-40.36-24.15Z" style="fill:#252525;"/><path d="M209.92,333.29c-7.6,1.88-13.45-1.57-14.9-7.44-1.47-5.96,2.08-11.84,9.67-13.72s13.38,1.69,14.86,7.65c1.45,5.87-2.12,11.65-9.63,13.5Zm-29.78-70.51l23.28-5.76,8.77,46.21-18.28,4.52-13.78-44.97Z" style="fill:#252525;"/><path d="M195.54,231.03c-7.78-.88-12.07-6.14-11.39-12.15s6.06-10.38,13.84-9.51c7.68,.87,11.96,6.23,11.27,12.34-.68,6.01-6.04,10.19-13.72,9.32Zm-3.44-76.47l23.83,2.69-7.82,46.38-18.71-2.11,2.7-46.96Z" style="fill:#252525;"/><path d="M349.67,38.06c-7.67,1.56-13.38-2.13-14.58-8.05-1.23-6.02,2.56-11.74,10.23-13.31,7.57-1.54,13.3,2.24,14.53,8.26s-2.6,11.55-10.18,13.09Z" style="fill:#252525;"/><polyline points="351.99 0 353.18 8.12 334.74 11.88 331.63 0" style="fill:#252525;"/><polyline points="331.63 400 322.84 366.37 346.33 361.58 351.99 400" style="fill:#252525;"/><path d="M50.45,182.37c-7.73-1.22-11.79-6.66-10.85-12.64s6.51-10.11,14.24-8.89,11.68,6.75,10.73,12.82-6.48,9.91-14.11,8.71Zm-.1-76.54l23.69,3.72-9.84,46-18.6-2.92,4.75-46.8Z" style="fill:#252525;"/><path d="M71.39,374.9c-7.81,.49-12.95-3.95-13.33-9.98s4.16-11.28,11.97-11.77c7.71-.48,12.86,4.06,13.25,10.19s-4.17,11.08-11.89,11.56Zm-16.69-74.7l23.93-1.5,.37,47.04-18.79,1.18-5.51-46.71Z" style="fill:#252525;"/></svg>