<svg id="Layer_1" data-name="Layer 1" xmlns="http://www.w3.org/2000/svg" viewBox="0 0 53.97 72"><path d="M68.72,18.9H90.66c2,0,2.48.52,2.34,2.52-.54,7.58-1.06,15.16-1.61,22.74q-.77,10.67-1.56,21.31c-.3,4.1-2.9,6.52-7,6.52q-14.13,0-28.26,0c-4.29,0-6.84-2.63-7-6.95-.23-4.57-.66-9.13-1-13.69s-.65-9-1-13.47-.65-9-1-13.47c-.08-1.18-.21-2.35-.28-3.53s.64-2,2.07-2H68.72ZM67.05,44.2V54.61c0,2.62,0,5.25,0,7.87,0,1.33.73,2.05,1.86,1.92,1-.12,1.39-.8,1.39-2.28V26.45a6.56,6.56,0,0,0,0-.89,1.61,1.61,0,0,0-3.2,0,6.52,6.52,0,0,0,0,1Zm-9.14.1h0q-.33-9.18-.64-18.36c0-1.13-.67-1.87-1.59-1.86A1.65,1.65,0,0,0,54.16,26c.09,3.69.18,7.38.3,11.07.26,8.44.55,16.88.82,25.33,0,1.34.58,2,1.64,2s1.59-.71,1.55-2.08Q58.19,53.32,57.91,44.3Zm21.46,1c-.09,2.56-.21,6.13-.32,9.71q-.12,3.76-.21,7.52c0,1.42,1,2.31,2.17,1.85.93-.37,1.06-1.2,1.09-2.1q.48-18,1-36.06c0-1.24-.52-2-1.48-2.09s-1.68.75-1.71,2C79.72,32.13,79.56,38.18,79.37,45.25Z" transform="translate(-41.7 0)"/><path d="M54.37,8.21a26.92,26.92,0,0,1,.47-3.45A6.27,6.27,0,0,1,60.74.07c5.5-.08,11-.11,16.5,0a6.44,6.44,0,0,1,6.23,6.49c0,.47,0,.95,0,1.57.43,0,.82.07,1.2.07,1.92,0,3.84,0,5.76,0a5,5,0,0,1,5.18,5.92,1.58,1.58,0,0,1-1.51,1.5c-.4,0-.81,0-1.22,0-16,0-32.11,0-48.17,0-3.16,0-3.27-1.29-2.8-3.76a4.56,4.56,0,0,1,4.72-3.71c2.18,0,4.36,0,6.53,0Zm4.29-.07H79.38c.39-3-.54-4.13-3.47-4.13C71.26,4,66.61,4.1,62,4,59.27,3.91,58.07,5.64,58.66,8.14Z" transform="translate(-41.7 0)"/></svg>